<svg width="32" height="32" viewBox="0 0 32 32" fill="none" xmlns="http://www.w3.org/2000/svg">
<rect width="32" height="32" fill="#070821"/>
<path d="M17.2539 24.3164C15.957 24.3164 14.7617 24.1445 13.668 23.8008C12.5742 23.4492 11.6484 22.9805 10.8906 22.3945C10.1406 21.8008 9.5 21.1094 8.96875 20.3203C8.4375 19.5312 8.04688 18.6992 7.79688 17.8242C7.55469 16.9414 7.43359 16.0352 7.43359 15.1055C7.43359 14.207 7.54297 13.332 7.76172 12.4805C7.98828 11.6211 8.32812 10.8164 8.78125 10.0664C9.24219 9.30859 9.79297 8.64453 10.4336 8.07422C11.0742 7.50391 11.8438 7.05469 12.7422 6.72656C13.6406 6.39844 14.6094 6.23438 15.6484 6.23438C16.5078 6.23438 17.25 6.3125 17.875 6.46875C18.5078 6.625 19.2031 6.91797 19.9609 7.34766C19.9453 7.16016 19.9375 7.03906 19.9375 6.98438C19.9375 6.74219 20.0234 6.58203 20.1953 6.50391C20.375 6.42578 20.7539 6.38672 21.332 6.38672C21.8477 6.38672 22.2305 6.41016 22.4805 6.45703C22.7383 6.50391 22.9766 6.63281 23.1953 6.84375C23.4141 7.05469 23.5742 7.34766 23.6758 7.72266C23.7852 8.09766 23.8945 8.64062 24.0039 9.35156C24.1133 10.0938 24.168 10.6172 24.168 10.9219C24.168 11.1484 24.1523 11.332 24.1211 11.4727C24.0977 11.6055 24.0625 11.7148 24.0156 11.8008C23.9766 11.8789 23.8945 11.9414 23.7695 11.9883C23.6445 12.0273 23.5312 12.0547 23.4297 12.0703C23.3281 12.0859 23.1523 12.1055 22.9023 12.1289C22.1445 12.1992 21.7344 12.2344 21.6719 12.2344C21.2969 12.2344 21.0039 12.0273 20.793 11.6133C20.3711 10.9414 19.8828 10.4336 19.3281 10.0898C18.7812 9.73828 18.2266 9.5625 17.6641 9.5625C16.8281 9.5625 16.125 9.91797 15.5547 10.6289C14.9922 11.332 14.7109 12.332 14.7109 13.6289C14.7109 14.5117 14.8438 15.3242 15.1094 16.0664C15.375 16.8008 15.7344 17.418 16.1875 17.918C16.6406 18.4102 17.168 18.793 17.7695 19.0664C18.3789 19.3398 19.0234 19.4766 19.7031 19.4766C21.1719 19.4766 22.5781 19.0977 23.9219 18.3398C24.2109 18.8633 24.3555 19.4102 24.3555 19.9805C24.3555 20.543 24.1992 21.082 23.8867 21.5977C23.5742 22.1133 23.125 22.5742 22.5391 22.9805C21.9609 23.3867 21.2148 23.7109 20.3008 23.9531C19.3867 24.1953 18.3711 24.3164 17.2539 24.3164Z" fill="#D745FC"/>
</svg>
