<svg width="16" height="16" viewBox="0 0 16 16" fill="none" xmlns="http://www.w3.org/2000/svg">
<rect width="16" height="16" fill="#070821"/>
<path d="M11.2832 6.17578H10.7969C10.7617 6.17578 10.7168 6.14062 10.6621 6.07031C10.6074 5.99609 10.543 5.90234 10.4688 5.78906C10.3984 5.67578 10.3164 5.55078 10.2227 5.41406C10.1289 5.27344 10.0176 5.13477 9.88867 4.99805C9.76367 4.86133 9.62891 4.73633 9.48438 4.62305C9.34375 4.50977 9.17578 4.41797 8.98047 4.34766C8.78906 4.27344 8.58984 4.23633 8.38281 4.23633C8.01953 4.23633 7.68359 4.30273 7.375 4.43555C7.06641 4.56445 6.80469 4.74023 6.58984 4.96289C6.375 5.18164 6.18945 5.43945 6.0332 5.73633C5.88086 6.0293 5.76758 6.33984 5.69336 6.66797C5.62305 6.99609 5.58789 7.33203 5.58789 7.67578C5.58789 8.00391 5.63086 8.32422 5.7168 8.63672C5.80664 8.94531 5.94141 9.23828 6.12109 9.51562C6.30469 9.79297 6.52344 10.0371 6.77734 10.248C7.03516 10.4551 7.3457 10.6211 7.70898 10.7461C8.07227 10.8672 8.4668 10.9277 8.89258 10.9277C9.80273 10.9277 10.6426 10.6406 11.4121 10.0664C11.5645 10.2695 11.6406 10.4688 11.6406 10.6641C11.6406 10.9453 11.4883 11.2051 11.1836 11.4434C10.8828 11.6777 10.5117 11.8555 10.0703 11.9766C9.62891 12.0977 9.18359 12.1582 8.73438 12.1582C8.13281 12.1582 7.57812 12.0742 7.07031 11.9062C6.56641 11.7383 6.13867 11.5117 5.78711 11.2266C5.43555 10.9414 5.13477 10.6094 4.88477 10.2305C4.63867 9.84766 4.45703 9.44336 4.33984 9.01758C4.22656 8.5918 4.16992 8.15234 4.16992 7.69922C4.16992 7.08594 4.26953 6.50195 4.46875 5.94727C4.66797 5.39258 4.94336 4.9082 5.29492 4.49414C5.64648 4.08008 6.08203 3.75195 6.60156 3.50977C7.12109 3.26367 7.68164 3.14062 8.2832 3.14062C8.66602 3.14062 9.05273 3.22656 9.44336 3.39844C9.83789 3.56641 10.1562 3.81641 10.3984 4.14844C10.3984 3.5625 10.4746 3.26953 10.627 3.26953H11.2832C11.4707 3.26953 11.5645 3.47266 11.5645 3.87891V5.44336C11.5645 5.66602 11.5527 5.83008 11.5293 5.93555C11.5098 6.03711 11.4824 6.10156 11.4473 6.12891C11.416 6.15234 11.3613 6.16797 11.2832 6.17578Z" fill="#D745FC"/>
</svg>
