<svg width="128" height="128" viewBox="0 0 128 128" fill="none" xmlns="http://www.w3.org/2000/svg">
<rect width="128" height="128" fill="#070821"/>
<path d="M86.2656 53.4062H82.375C82.0938 53.4062 81.7344 53.125 81.2969 52.5625C80.8594 51.9688 80.3438 51.2188 79.75 50.3125C79.1875 49.4062 78.5312 48.4062 77.7812 47.3125C77.0312 46.1875 76.1406 45.0781 75.1094 43.9844C74.1094 42.8906 73.0312 41.8906 71.875 40.9844C70.75 40.0781 69.4062 39.3438 67.8438 38.7812C66.3125 38.1875 64.7188 37.8906 63.0625 37.8906C60.1562 37.8906 57.4688 38.4219 55 39.4844C52.5312 40.5156 50.4375 41.9219 48.7188 43.7031C47 45.4531 45.5156 47.5156 44.2656 49.8906C43.0469 52.2344 42.1406 54.7188 41.5469 57.3438C40.9844 59.9688 40.7031 62.6562 40.7031 65.4062C40.7031 68.0312 41.0469 70.5938 41.7344 73.0938C42.4531 75.5625 43.5312 77.9062 44.9688 80.125C46.4375 82.3438 48.1875 84.2969 50.2188 85.9844C52.2812 87.6406 54.7656 88.9688 57.6719 89.9688C60.5781 90.9375 63.7344 91.4219 67.1406 91.4219C74.4219 91.4219 81.1406 89.125 87.2969 84.5312C88.5156 86.1562 89.125 87.75 89.125 89.3125C89.125 91.5625 87.9062 93.6406 85.4688 95.5469C83.0625 97.4219 80.0938 98.8438 76.5625 99.8125C73.0312 100.781 69.4688 101.266 65.875 101.266C61.0625 101.266 56.625 100.594 52.5625 99.25C48.5312 97.9062 45.1094 96.0938 42.2969 93.8125C39.4844 91.5312 37.0781 88.875 35.0781 85.8438C33.1094 82.7812 31.6562 79.5469 30.7188 76.1406C29.8125 72.7344 29.3594 69.2188 29.3594 65.5938C29.3594 60.6875 30.1562 56.0156 31.75 51.5781C33.3438 47.1406 35.5469 43.2656 38.3594 39.9531C41.1719 36.6406 44.6562 34.0156 48.8125 32.0781C52.9688 30.1094 57.4531 29.125 62.2656 29.125C65.3281 29.125 68.4219 29.8125 71.5469 31.1875C74.7031 32.5312 77.25 34.5312 79.1875 37.1875C79.1875 32.5 79.7969 30.1562 81.0156 30.1562H86.2656C87.7656 30.1562 88.5156 31.7813 88.5156 35.0312V47.5469C88.5156 49.3281 88.4219 50.6406 88.2344 51.4844C88.0781 52.2969 87.8594 52.8125 87.5781 53.0312C87.3281 53.2188 86.8906 53.3438 86.2656 53.4062Z" fill="#D745FC"/>
</svg>
