<svg width="64" height="64" viewBox="0 0 64 64" fill="none" xmlns="http://www.w3.org/2000/svg">
<rect width="64" height="64" fill="#070821"/>
<path d="M43.1328 27.7031H41.1875C41.0469 27.7031 40.8672 27.5625 40.6484 27.2812C40.4297 26.9844 40.1719 26.6094 39.875 26.1562C39.5938 25.7031 39.2656 25.2031 38.8906 24.6562C38.5156 24.0938 38.0703 23.5391 37.5547 22.9922C37.0547 22.4453 36.5156 21.9453 35.9375 21.4922C35.375 21.0391 34.7031 20.6719 33.9219 20.3906C33.1562 20.0938 32.3594 19.9453 31.5312 19.9453C30.0781 19.9453 28.7344 20.2109 27.5 20.7422C26.2656 21.2578 25.2188 21.9609 24.3594 22.8516C23.5 23.7266 22.7578 24.7578 22.1328 25.9453C21.5234 27.1172 21.0703 28.3594 20.7734 29.6719C20.4922 30.9844 20.3516 32.3281 20.3516 33.7031C20.3516 35.0156 20.5234 36.2969 20.8672 37.5469C21.2266 38.7812 21.7656 39.9531 22.4844 41.0625C23.2188 42.1719 24.0938 43.1484 25.1094 43.9922C26.1406 44.8203 27.3828 45.4844 28.8359 45.9844C30.2891 46.4688 31.8672 46.7109 33.5703 46.7109C37.2109 46.7109 40.5703 45.5625 43.6484 43.2656C44.2578 44.0781 44.5625 44.875 44.5625 45.6562C44.5625 46.7812 43.9531 47.8203 42.7344 48.7734C41.5312 49.7109 40.0469 50.4219 38.2812 50.9062C36.5156 51.3906 34.7344 51.6328 32.9375 51.6328C30.5312 51.6328 28.3125 51.2969 26.2812 50.625C24.2656 49.9531 22.5547 49.0469 21.1484 47.9062C19.7422 46.7656 18.5391 45.4375 17.5391 43.9219C16.5547 42.3906 15.8281 40.7734 15.3594 39.0703C14.9062 37.3672 14.6797 35.6094 14.6797 33.7969C14.6797 31.3438 15.0781 29.0078 15.875 26.7891C16.6719 24.5703 17.7734 22.6328 19.1797 20.9766C20.5859 19.3203 22.3281 18.0078 24.4062 17.0391C26.4844 16.0547 28.7266 15.5625 31.1328 15.5625C32.6641 15.5625 34.2109 15.9063 35.7734 16.5938C37.3516 17.2656 38.625 18.2656 39.5938 19.5938C39.5938 17.25 39.8984 16.0781 40.5078 16.0781H43.1328C43.8828 16.0781 44.2578 16.8906 44.2578 18.5156V24.7734C44.2578 25.6641 44.2109 26.3203 44.1172 26.7422C44.0391 27.1484 43.9297 27.4062 43.7891 27.5156C43.6641 27.6094 43.4453 27.6719 43.1328 27.7031Z" fill="#D745FC"/>
</svg>
