<svg width="16" height="16" viewBox="0 0 16 16" fill="none" xmlns="http://www.w3.org/2000/svg">
<rect width="16" height="16" fill="#070821"/>
<path d="M8.62695 12.1582C7.97852 12.1582 7.38086 12.0723 6.83398 11.9004C6.28711 11.7246 5.82422 11.4902 5.44531 11.1973C5.07031 10.9004 4.75 10.5547 4.48438 10.1602C4.21875 9.76562 4.02344 9.34961 3.89844 8.91211C3.77734 8.4707 3.7168 8.01758 3.7168 7.55273C3.7168 7.10352 3.77148 6.66602 3.88086 6.24023C3.99414 5.81055 4.16406 5.4082 4.39062 5.0332C4.62109 4.6543 4.89648 4.32227 5.2168 4.03711C5.53711 3.75195 5.92188 3.52734 6.37109 3.36328C6.82031 3.19922 7.30469 3.11719 7.82422 3.11719C8.25391 3.11719 8.625 3.15625 8.9375 3.23438C9.25391 3.3125 9.60156 3.45898 9.98047 3.67383C9.97266 3.58008 9.96875 3.51953 9.96875 3.49219C9.96875 3.37109 10.0117 3.29102 10.0977 3.25195C10.1875 3.21289 10.377 3.19336 10.666 3.19336C10.9238 3.19336 11.1152 3.20508 11.2402 3.22852C11.3691 3.25195 11.4883 3.31641 11.5977 3.42188C11.707 3.52734 11.7871 3.67383 11.8379 3.86133C11.8926 4.04883 11.9473 4.32031 12.002 4.67578C12.0566 5.04688 12.084 5.30859 12.084 5.46094C12.084 5.57422 12.0762 5.66602 12.0605 5.73633C12.0488 5.80273 12.0312 5.85742 12.0078 5.90039C11.9883 5.93945 11.9473 5.9707 11.8848 5.99414C11.8223 6.01367 11.7656 6.02734 11.7148 6.03516C11.6641 6.04297 11.5762 6.05273 11.4512 6.06445C11.0723 6.09961 10.8672 6.11719 10.8359 6.11719C10.6484 6.11719 10.502 6.01367 10.3965 5.80664C10.1855 5.4707 9.94141 5.2168 9.66406 5.04492C9.39062 4.86914 9.11328 4.78125 8.83203 4.78125C8.41406 4.78125 8.0625 4.95898 7.77734 5.31445C7.49609 5.66602 7.35547 6.16602 7.35547 6.81445C7.35547 7.25586 7.42188 7.66211 7.55469 8.0332C7.6875 8.40039 7.86719 8.70898 8.09375 8.95898C8.32031 9.20508 8.58398 9.39648 8.88477 9.5332C9.18945 9.66992 9.51172 9.73828 9.85156 9.73828C10.5859 9.73828 11.2891 9.54883 11.9609 9.16992C12.1055 9.43164 12.1777 9.70508 12.1777 9.99023C12.1777 10.2715 12.0996 10.541 11.9434 10.7988C11.7871 11.0566 11.5625 11.2871 11.2695 11.4902C10.9805 11.6934 10.6074 11.8555 10.1504 11.9766C9.69336 12.0977 9.18555 12.1582 8.62695 12.1582Z" fill="#D745FC"/>
</svg>
