<svg width="64" height="64" viewBox="0 0 64 64" fill="none" xmlns="http://www.w3.org/2000/svg">
<rect width="64" height="64" fill="#070821"/>
<path d="M34.5078 51.6328C31.9141 51.6328 29.5234 51.2891 27.3359 50.6016C25.1484 49.8984 23.2969 48.9609 21.7812 47.7891C20.2812 46.6016 19 45.2188 17.9375 43.6406C16.875 42.0625 16.0938 40.3984 15.5938 38.6484C15.1094 36.8828 14.8672 35.0703 14.8672 33.2109C14.8672 31.4141 15.0859 29.6641 15.5234 27.9609C15.9766 26.2422 16.6562 24.6328 17.5625 23.1328C18.4844 21.6172 19.5859 20.2891 20.8672 19.1484C22.1484 18.0078 23.6875 17.1094 25.4844 16.4531C27.2812 15.7969 29.2188 15.4688 31.2969 15.4688C33.0156 15.4688 34.5 15.625 35.75 15.9375C37.0156 16.25 38.4062 16.8359 39.9219 17.6953C39.8906 17.3203 39.875 17.0781 39.875 16.9688C39.875 16.4844 40.0469 16.1641 40.3906 16.0078C40.75 15.8516 41.5078 15.7734 42.6641 15.7734C43.6953 15.7734 44.4609 15.8203 44.9609 15.9141C45.4766 16.0078 45.9531 16.2656 46.3906 16.6875C46.8281 17.1094 47.1484 17.6953 47.3516 18.4453C47.5703 19.1953 47.7891 20.2812 48.0078 21.7031C48.2266 23.1875 48.3359 24.2344 48.3359 24.8438C48.3359 25.2969 48.3047 25.6641 48.2422 25.9453C48.1953 26.2109 48.125 26.4297 48.0312 26.6016C47.9531 26.7578 47.7891 26.8828 47.5391 26.9766C47.2891 27.0547 47.0625 27.1094 46.8594 27.1406C46.6562 27.1719 46.3047 27.2109 45.8047 27.2578C44.2891 27.3984 43.4688 27.4688 43.3438 27.4688C42.5938 27.4688 42.0078 27.0547 41.5859 26.2266C40.7422 24.8828 39.7656 23.8672 38.6562 23.1797C37.5625 22.4766 36.4531 22.125 35.3281 22.125C33.6562 22.125 32.25 22.8359 31.1094 24.2578C29.9844 25.6641 29.4219 27.6641 29.4219 30.2578C29.4219 32.0234 29.6875 33.6484 30.2188 35.1328C30.75 36.6016 31.4688 37.8359 32.375 38.8359C33.2812 39.8203 34.3359 40.5859 35.5391 41.1328C36.7578 41.6797 38.0469 41.9531 39.4062 41.9531C42.3438 41.9531 45.1562 41.1953 47.8438 39.6797C48.4219 40.7266 48.7109 41.8203 48.7109 42.9609C48.7109 44.0859 48.3984 45.1641 47.7734 46.1953C47.1484 47.2266 46.25 48.1484 45.0781 48.9609C43.9219 49.7734 42.4297 50.4219 40.6016 50.9062C38.7734 51.3906 36.7422 51.6328 34.5078 51.6328Z" fill="#D745FC"/>
</svg>
