<svg width="128" height="128" viewBox="0 0 128 128" fill="none" xmlns="http://www.w3.org/2000/svg">
<rect width="128" height="128" fill="#070821"/>
<path d="M69.0156 101.266C63.8281 101.266 59.0469 100.578 54.6719 99.2031C50.2969 97.7969 46.5938 95.9219 43.5625 93.5781C40.5625 91.2031 38 88.4375 35.875 85.2812C33.75 82.125 32.1875 78.7969 31.1875 75.2969C30.2188 71.7656 29.7344 68.1406 29.7344 64.4219C29.7344 60.8281 30.1719 57.3281 31.0469 53.9219C31.9531 50.4844 33.3125 47.2656 35.125 44.2656C36.9688 41.2344 39.1719 38.5781 41.7344 36.2969C44.2969 34.0156 47.375 32.2188 50.9688 30.9062C54.5625 29.5938 58.4375 28.9375 62.5938 28.9375C66.0312 28.9375 69 29.25 71.5 29.875C74.0312 30.5 76.8125 31.6719 79.8438 33.3906C79.7812 32.6406 79.75 32.1562 79.75 31.9375C79.75 30.9687 80.0938 30.3281 80.7812 30.0156C81.5 29.7031 83.0156 29.5469 85.3281 29.5469C87.3906 29.5469 88.9219 29.6406 89.9219 29.8281C90.9531 30.0156 91.9062 30.5312 92.7812 31.375C93.6562 32.2188 94.2969 33.3906 94.7031 34.8906C95.1406 36.3906 95.5781 38.5625 96.0156 41.4062C96.4531 44.375 96.6719 46.4688 96.6719 47.6875C96.6719 48.5938 96.6094 49.3281 96.4844 49.8906C96.3906 50.4219 96.25 50.8594 96.0625 51.2031C95.9062 51.5156 95.5781 51.7656 95.0781 51.9531C94.5781 52.1094 94.125 52.2188 93.7188 52.2812C93.3125 52.3438 92.6094 52.4219 91.6094 52.5156C88.5781 52.7969 86.9375 52.9375 86.6875 52.9375C85.1875 52.9375 84.0156 52.1094 83.1719 50.4531C81.4844 47.7656 79.5312 45.7344 77.3125 44.3594C75.125 42.9531 72.9062 42.25 70.6562 42.25C67.3125 42.25 64.5 43.6719 62.2188 46.5156C59.9688 49.3281 58.8438 53.3281 58.8438 58.5156C58.8438 62.0469 59.375 65.2969 60.4375 68.2656C61.5 71.2031 62.9375 73.6719 64.75 75.6719C66.5625 77.6406 68.6719 79.1719 71.0781 80.2656C73.5156 81.3594 76.0938 81.9062 78.8125 81.9062C84.6875 81.9062 90.3125 80.3906 95.6875 77.3594C96.8438 79.4531 97.4219 81.6406 97.4219 83.9219C97.4219 86.1719 96.7969 88.3281 95.5469 90.3906C94.2969 92.4531 92.5 94.2969 90.1562 95.9219C87.8438 97.5469 84.8594 98.8438 81.2031 99.8125C77.5469 100.781 73.4844 101.266 69.0156 101.266Z" fill="#D745FC"/>
</svg>
