<svg width="32" height="32" viewBox="0 0 32 32" fill="none" xmlns="http://www.w3.org/2000/svg">
<rect width="32" height="32" fill="#070821"/>
<path d="M22.5664 12.3516H21.5938C21.5234 12.3516 21.4336 12.2812 21.3242 12.1406C21.2148 11.9922 21.0859 11.8047 20.9375 11.5781C20.7969 11.3516 20.6328 11.1016 20.4453 10.8281C20.2578 10.5469 20.0352 10.2695 19.7773 9.99609C19.5273 9.72266 19.2578 9.47266 18.9688 9.24609C18.6875 9.01953 18.3516 8.83594 17.9609 8.69531C17.5781 8.54688 17.1797 8.47266 16.7656 8.47266C16.0391 8.47266 15.3672 8.60547 14.75 8.87109C14.1328 9.12891 13.6094 9.48047 13.1797 9.92578C12.75 10.3633 12.3789 10.8789 12.0664 11.4727C11.7617 12.0586 11.5352 12.6797 11.3867 13.3359C11.2461 13.9922 11.1758 14.6641 11.1758 15.3516C11.1758 16.0078 11.2617 16.6484 11.4336 17.2734C11.6133 17.8906 11.8828 18.4766 12.2422 19.0312C12.6094 19.5859 13.0469 20.0742 13.5547 20.4961C14.0703 20.9102 14.6914 21.2422 15.418 21.4922C16.1445 21.7344 16.9336 21.8555 17.7852 21.8555C19.6055 21.8555 21.2852 21.2812 22.8242 20.1328C23.1289 20.5391 23.2812 20.9375 23.2812 21.3281C23.2812 21.8906 22.9766 22.4102 22.3672 22.8867C21.7656 23.3555 21.0234 23.7109 20.1406 23.9531C19.2578 24.1953 18.3672 24.3164 17.4688 24.3164C16.2656 24.3164 15.1562 24.1484 14.1406 23.8125C13.1328 23.4766 12.2773 23.0234 11.5742 22.4531C10.8711 21.8828 10.2695 21.2188 9.76953 20.4609C9.27734 19.6953 8.91406 18.8867 8.67969 18.0352C8.45312 17.1836 8.33984 16.3047 8.33984 15.3984C8.33984 14.1719 8.53906 13.0039 8.9375 11.8945C9.33594 10.7852 9.88672 9.81641 10.5898 8.98828C11.293 8.16016 12.1641 7.50391 13.2031 7.01953C14.2422 6.52734 15.3633 6.28125 16.5664 6.28125C17.332 6.28125 18.1055 6.45312 18.8867 6.79688C19.6758 7.13281 20.3125 7.63281 20.7969 8.29688C20.7969 7.125 20.9492 6.53906 21.2539 6.53906H22.5664C22.9414 6.53906 23.1289 6.94531 23.1289 7.75781V10.8867C23.1289 11.332 23.1055 11.6602 23.0586 11.8711C23.0195 12.0742 22.9648 12.2031 22.8945 12.2578C22.832 12.3047 22.7227 12.3359 22.5664 12.3516Z" fill="#D745FC"/>
</svg>
